<svg data-v-0dd9719b="" version="1.0" xmlns="http://www.w3.org/2000/svg" xmlns:xlink="http://www.w3.org/1999/xlink" width="100%" height="100%" viewBox="0 0 340.000000 250.000000" preserveAspectRatio="xMidYMid meet" color-interpolation-filters="sRGB" style="margin: auto;"> <rect data-v-0dd9719b="" x="0" y="0" width="100%" height="100%" fill="#fff" fill-opacity="1" class="background"></rect> <rect data-v-0dd9719b="" x="0" y="0" width="100%" height="100%" fill="url(#watermark)" fill-opacity="1" class="watermarklayer"></rect> <g data-v-0dd9719b="" fill="#333" class="icon-text-wrapper icon-svg-group iconsvg" transform="translate(48.19499969482422,90.75381469726562)"><g class="iconsvg-imagesvg" transform="translate(0,0)"><g><rect fill="#333" fill-opacity="0" stroke-width="2" x="0" y="0" width="59.99999999999999" height="68.49236880857524" class="image-rect"></rect> <svg x="0" y="0" width="59.99999999999999" height="68.49236880857524" filtersec="colorsb531566352" class="image-svg-svg primary" style="overflow: visible;"><svg xmlns="http://www.w3.org/2000/svg" viewBox="-0.02031148411333561 -0.003824889659881592 126.42715454101562 144.32151794433594"><path d="M104.63 23.53c-4.29 2.44-8.34 4.87-12.52 7-.69.36-2.11-.32-3-.83-7.84-4.44-15.68-8.91-23.45-13.49a4.19 4.19 0 0 0-4.83 0q-22.41 13-44.95 25.89a4 4 0 0 0-2.35 4c.07 17.49 0 35 .09 52.45a4.38 4.38 0 0 0 1.86 3.23c15.16 8.87 30.42 17.58 45.61 26.39a3.89 3.89 0 0 0 4.38-.1c15.11-8.76 30.28-17.44 45.36-26.26a4.48 4.48 0 0 0 2-3.18c.18-14.69.2-29.38.24-44.07 0-.81-.16-1.62-.3-3-1.78.95-3.22 1.66-4.6 2.46L66.34 78.05c-3.91 2.25-9.1-.94-9.41-5.47-.24-3.42.94-5.25 4-7C79.75 55 98.47 44.08 117.24 33.27c3.51-2 9.15 1.21 9.15 5.25v67a4.4 4.4 0 0 1-2.54 4.38q-29.41 16.81-58.74 33.78a3.63 3.63 0 0 1-4.11 0Q31.83 126.75 2.54 110A4.43 4.43 0 0 1 0 105.58q.14-33.48 0-67a4.19 4.19 0 0 1 2.4-4.21Q31.6 17.73 60.7.89C62.23 0 63.49-.44 65.28.6 78 8 90.73 15.29 103.46 22.61a14.53 14.53 0 0 1 1.17.92z" fill="#303e8f"></path><path d="M76.5 39.69L58.61 50c-4.83 2.81-9.61 5.64-14.51 8.33a3.51 3.51 0 0 0-2 3.56c.07 6.6.08 13.21 0 19.81a3.76 3.76 0 0 0 2.2 3.75C50.18 88.76 56 92.27 62 95.5a4.56 4.56 0 0 0 3.73-.21c9.72-5.45 19.36-11.06 29-16.61.94-.54 1.92-1 3.24-1.68 0 5 .08 9.5-.08 14a3.43 3.43 0 0 1-1.68 2.24q-15.42 9-31 17.74A3.9 3.9 0 0 1 62 111q-15.8-8.88-31.42-18a4.22 4.22 0 0 1-1.68-3.09q-.16-18 0-36a4.18 4.18 0 0 1 1.66-3.07c10.24-6.06 20.55-12 30.9-17.86a3.44 3.44 0 0 1 2.79-.24c3.93 2.08 7.75 4.37 12.25 6.95z" fill="#fb941c"></path></svg></svg> <!----></g></g> <g transform="translate(67,9.794933319091797)"><g data-gra="path-name" fill-rule="" class="tp-name iconsvg-namesvg" transform="translate(0,0)"><g transform="scale(1)"><g><path d="M18.65 3.13L14.62 3.13 14.62-8.78Q13.54-8.35 12.46-8.03L12.46-8.03Q11.48-10.08 10.15-11.45L10.15-11.45Q15.52-12.89 19.69-15.84L19.69-15.84Q17.82-17.71 16.6-19.55L16.6-19.55Q15.12-17.71 13.39-16.16L13.39-16.16Q11.66-17.89 10.04-18.97L10.04-18.97Q12.64-20.92 14.87-24.05L14.87-24.05Q17.06-27.07 18.36-30.49L18.36-30.49 22.5-29.41Q21.78-27.72 21.24-26.68L21.24-26.68 28.37-26.68 29.09-26.86 31.97-25.49Q30.06-20.02 26.06-15.91L26.06-15.91Q30.17-13.43 35.35-12.38L35.35-12.38Q33.84-10.87 32.65-8.57L32.65-8.57Q31.9-8.75 31.43-8.93L31.43-8.93 31.43 2.99 27.22 2.99 27.22 1.91 18.65 1.91 18.65 3.13ZM5.87 2.63L5.87 2.63 2.12-0.04Q5.36-4.93 8.32-11.16L8.32-11.16 11.59-8.5Q8.64-2.16 5.87 2.63ZM18.65-6.52L18.65-1.76 27.22-1.76 27.22-6.52 18.65-6.52ZM17.78-10.12L17.78-10.12 28.15-10.12Q25.13-11.45 22.82-13.14L22.82-13.14Q20.63-11.52 17.78-10.12ZM10.04-17.21L7.6-13.64Q6.62-14.51 4.68-15.62L4.68-15.62Q2.92-16.67 1.12-17.42L1.12-17.42 3.38-20.63Q5.22-19.98 7.02-19.08L7.02-19.08Q9.04-18.07 10.04-17.21L10.04-17.21ZM22.72-18.36L22.72-18.36Q24.84-20.48 26.28-23.04L26.28-23.04 19.15-23.04 18.94-22.72Q20.38-20.38 22.72-18.36ZM12.02-26.78L9.54-23.26Q8.6-24.19 6.73-25.31L6.73-25.31Q4.93-26.39 3.17-27.14L3.17-27.14 5.51-30.31Q7.2-29.66 9.04-28.69L9.04-28.69Q10.98-27.65 12.02-26.78L12.02-26.78ZM42.66 3.02L38.7 3.02 38.7-29.09 47.84-29.09 48.46-29.27 51.44-27.54Q49.18-21.74 47.63-18.29L47.63-18.29Q50.9-14.83 50.9-10.8L50.9-10.8Q50.9-7.31 49.07-6.01L49.07-6.01Q48.1-5.36 46.8-5.15L46.8-5.15Q45.72-5.04 44.06-5.11L44.06-5.11Q43.99-7.27 43.06-8.93L43.06-8.93Q43.81-8.86 44.96-8.86L44.96-8.86Q45.76-8.93 46.19-9.18L46.19-9.18Q46.94-9.68 46.94-11.27L46.94-11.27Q46.87-14.65 43.67-17.82L43.67-17.82Q44.46-19.73 46.01-24.52L46.01-24.52Q46.19-25.02 46.26-25.27L46.26-25.27 42.66-25.27 42.66 3.02ZM56.41 2.77L52.31 2.77 52.31-28.37 69.23-28.37 69.23 2.45 64.91 2.45 64.91 0.29 56.41 0.29 56.41 2.77ZM56.41-12.38L56.41-3.71 64.91-3.71 64.91-12.38 56.41-12.38ZM56.41-24.37L56.41-16.34 64.91-16.34 64.91-24.37 56.41-24.37ZM105.91 2.23L74.2 2.23 74.2-1.48 87.91-1.48 87.91-3.92 78.62-3.92 78.62-7.27 87.91-7.27 87.91-9.47 80.28-9.47Q78.66-7.34 76.97-5.87L76.97-5.87Q75.06-7.6 73.4-8.5L73.4-8.5Q75.2-9.86 76.79-11.81L76.79-11.81Q78.37-13.75 79.34-15.84L79.34-15.84 77.69-15.84 77.69-29.23 102.28-29.23 102.28-15.84 80.75-15.84 83.74-14.98Q83.09-13.68 82.69-13L82.69-13 87.91-13 87.91-15.19 92.34-15.19 92.34-13 103.64-13 103.64-9.47 92.34-9.47 92.34-7.27 101.99-7.27 101.99-3.92 92.34-3.92 92.34-1.48 105.91-1.48 105.91 2.23ZM81.9-21.06L81.9-19.12 97.81-19.12 97.81-21.06 81.9-21.06ZM81.9-25.99L81.9-24.08 97.81-24.08 97.81-25.99 81.9-25.99ZM137.02 1.84Q135.14 2.66 129.31 2.59L129.31 2.59Q128.99 0.54 127.8-1.73L127.8-1.73Q130.32-1.62 133.74-1.62L133.74-1.62Q134.35-1.62 134.59-1.84 134.82-2.05 134.82-2.63L134.82-2.63 134.82-19.62 124.16-19.62 124.16-23.87 134.82-23.87 134.82-30.24 139.18-30.24 139.18-23.87 142.85-23.87 142.85-19.62 139.18-19.62 139.18-2.56Q139.18-0.61 138.71 0.36 138.24 1.33 137.02 1.84L137.02 1.84ZM114.48-0.61L110.45-0.61 110.45-27.68 122.8-27.68 122.8-3.49 114.48-3.49 114.48-0.61ZM133.42-9.36L129.64-7.16Q128.48-9.36 124.52-15.41L124.52-15.41 128.05-17.28Q128.3-16.92 128.84-16.16L128.84-16.16Q132.44-11.16 133.42-9.36L133.42-9.36ZM114.48-13.86L114.48-7.34 118.8-7.34 118.8-13.86 114.48-13.86ZM114.48-23.87L114.48-17.6 118.8-17.6 118.8-23.87 114.48-23.87ZM177.59 1.94L146.59 1.94 146.59-1.94 159.59-1.94 159.59-9 150.95-9 150.95-12.64Q150.26-12.31 148.97-11.74L148.97-11.74 146.56-15.62Q152.71-17.53 157.61-21.13L157.61-21.13 160.56-18.5Q156.71-15.41 151.34-12.82L151.34-12.82 173.3-12.82 173.3-9 164.16-9 164.16-1.94 177.59-1.94 177.59 1.94ZM177.52-15.66L174.64-12.24Q170.82-14.72 163.48-18.22L163.48-18.22 166.18-21.17Q174.24-17.57 177.52-15.66L177.52-15.66ZM150.52-17.64L146.3-17.64 146.3-26.42 159.77-26.42Q159.19-28.01 158.47-29.56L158.47-29.56 163.04-30.82Q163.15-30.56 163.4-30.02L163.4-30.02Q164.63-27.54 165.02-26.42L165.02-26.42 177.73-26.42 177.73-18.32 173.3-18.32 173.3-22.54 150.52-22.54 150.52-17.64Z" transform="translate(-1.1200000047683716, 30.81999969482422)"></path></g> <!----> <!----> <!----> <!----> <!----> <!----> <!----></g></g> <g data-gra="path-slogan" fill-rule="" class="tp-slogan iconsvg-slogansvg" fill="#333" transform="translate(5.000007629394531,39.95000076293945)"><rect x="0" height="1" y="3.9750003814697266" width="8.069999694824219"></rect> <rect height="1" y="3.9750003814697266" width="8.069999694824219" x="158.54000091552734"></rect> <g transform="translate(11.069999694824219,0)"><g transform="scale(1)"><path d="M0.89-8.58L2.06-8.58L2.06-1.03L6.42-1.03L6.42 0L0.89 0L0.89-8.58ZM13.22-3.19L13.22-8.58L14.39-8.58L14.39-3.05Q14.25 0.05 10.88 0.14L10.88 0.14Q7.73 0.05 7.59-2.86L7.59-2.86L7.59-8.58L8.77-8.58L8.77-3.19Q8.81-0.84 10.92-0.80L10.92-0.80Q13.22-0.84 13.22-3.19L13.22-3.19ZM22.97-4.27L22.97-4.27Q22.78-7.64 19.97-7.83L19.97-7.83Q17.11-7.69 16.97-4.27L16.97-4.27Q17.11-0.94 19.97-0.80L19.97-0.80Q22.78-0.98 22.97-4.27ZM24.14-4.27L24.14-4.27Q23.86 0 19.97 0.14L19.97 0.14Q16.03 0 15.75-4.27L15.75-4.27Q15.98-8.72 19.97-8.81L19.97-8.81Q23.86-8.67 24.14-4.27ZM32.44-8.58L29.20-3.47L29.20 0L28.03 0L28.03-3.47L24.80-8.58L26.16-8.58L28.59-4.45L31.08-8.58L32.44-8.58ZM39.14 0L38.30-2.48L34.83-2.48L33.94 0L32.77 0L36-8.58L37.31-8.58L40.41 0L39.14 0ZM36.56-7.31L35.20-3.52L37.88-3.52L36.61-7.31L36.56-7.31ZM42.84-8.58L47.16-1.64L47.16-8.58L48.28-8.58L48.28 0L46.97 0L42.61-6.94L42.56-6.94L42.56 0L41.44 0L41.44-8.58L42.84-8.58ZM56.48-3.61L53.86-3.61L53.86-4.59L57.61-4.59L57.61 0L56.86 0L56.58-1.08Q55.59 0.09 53.77 0.14L53.77 0.14Q52.03 0.14 51.09-0.75L51.09-0.75Q49.69-2.06 49.73-4.36L49.73-4.36Q50.06-8.63 53.81-8.81L53.81-8.81Q57-8.63 57.47-6L57.47-6L56.34-6Q55.88-7.78 53.77-7.83L53.77-7.83Q51.09-7.64 50.95-4.31L50.95-4.31Q50.95-0.75 53.81-0.75L53.81-0.75Q54.84-0.75 55.59-1.31L55.59-1.31Q56.53-2.06 56.48-3.61L56.48-3.61ZM69.47-8.58L66.56-4.41L69.61 0L68.16 0L65.81-3.52L63.47 0L62.06 0L65.16-4.41L62.25-8.58L63.70-8.58L65.86-5.30L68.06-8.58L69.47-8.58ZM70.88-8.58L72.05-8.58L72.05 0L70.88 0L70.88-8.58ZM75.42-8.58L79.73-1.64L79.73-8.58L80.86-8.58L80.86 0L79.55 0L75.19-6.94L75.14-6.94L75.14 0L74.02 0L74.02-8.58L75.42-8.58ZM89.06-3.61L86.44-3.61L86.44-4.59L90.19-4.59L90.19 0L89.44 0L89.16-1.08Q88.17 0.09 86.34 0.14L86.34 0.14Q84.61 0.14 83.67-0.75L83.67-0.75Q82.27-2.06 82.31-4.36L82.31-4.36Q82.64-8.63 86.39-8.81L86.39-8.81Q89.58-8.63 90.05-6L90.05-6L88.92-6Q88.45-7.78 86.34-7.83L86.34-7.83Q83.67-7.64 83.53-4.31L83.53-4.31Q83.53-0.75 86.39-0.75L86.39-0.75Q87.42-0.75 88.17-1.31L88.17-1.31Q89.11-2.06 89.06-3.61L89.06-3.61ZM98.25-6.09L98.25-6.09L97.17-6.09Q97.08-7.73 95.02-7.83L95.02-7.83Q93.09-7.78 93.09-6.33L93.09-6.33Q93.09-5.39 94.13-5.25L94.13-5.25L96.56-4.69Q98.48-4.22 98.48-2.34L98.48-2.34Q98.44 0.05 95.11 0.14L95.11 0.14Q93.28 0.14 92.53-0.61L92.53-0.61Q91.59-1.31 91.64-2.77L91.64-2.77L92.77-2.77Q92.81-0.80 95.11-0.75L95.11-0.75Q97.36-0.80 97.41-2.20L97.41-2.20Q97.59-3.38 95.53-3.75L95.53-3.75L93.75-4.13Q91.92-4.64 91.92-6.19L91.92-6.19Q92.06-8.72 94.92-8.81L94.92-8.81Q98.16-8.81 98.25-6.09ZM101.11-5.06L105.61-5.06L105.61-8.58L106.78-8.58L106.78 0L105.61 0L105.61-3.98L101.11-3.98L101.11 0L99.94 0L99.94-8.58L101.11-8.58L101.11-5.06ZM108.75-8.58L109.92-8.58L109.92 0L108.75 0L108.75-8.58ZM114.42-4.31L113.06-3.05L113.06 0L111.89 0L111.89-8.58L113.06-8.58L113.06-4.41L117.23-8.58L118.88-8.58L115.27-5.11L118.97 0L117.42 0L114.42-4.31ZM126.66-4.27L126.66-4.27Q126.47-7.64 123.66-7.83L123.66-7.83Q120.80-7.69 120.66-4.27L120.66-4.27Q120.80-0.94 123.66-0.80L123.66-0.80Q126.47-0.98 126.66-4.27ZM127.83-4.27L127.83-4.27Q127.55 0 123.66 0.14L123.66 0.14Q119.72 0 119.44-4.27L119.44-4.27Q119.67-8.72 123.66-8.81L123.66-8.81Q127.55-8.67 127.83-4.27ZM130.59-8.58L134.91-1.64L134.91-8.58L136.03-8.58L136.03 0L134.72 0L130.36-6.94L130.31-6.94L130.31 0L129.19 0L129.19-8.58L130.59-8.58ZM144.23-3.61L141.61-3.61L141.61-4.59L145.36-4.59L145.36 0L144.61 0L144.33-1.08Q143.34 0.09 141.52 0.14L141.52 0.14Q139.78 0.14 138.84-0.75L138.84-0.75Q137.44-2.06 137.48-4.36L137.48-4.36Q137.81-8.63 141.56-8.81L141.56-8.81Q144.75-8.63 145.22-6L145.22-6L144.09-6Q143.63-7.78 141.52-7.83L141.52-7.83Q138.84-7.64 138.70-4.31L138.70-4.31Q138.70-0.75 141.56-0.75L141.56-0.75Q142.59-0.75 143.34-1.31L143.34-1.31Q144.28-2.06 144.23-3.61L144.23-3.61Z" transform="translate(-0.890625, 8.8125)"></path></g></g></g></g></g><defs v-gra="od"></defs></svg>